<svg xmlns="http://www.w3.org/2000/svg" viewBox="0 0 519.82 259.22"><defs><style>.cls-1{fill:#6b4d74;}</style></defs><g id="Layer_2" data-name="Layer 2"><g id="Layer_1-2" data-name="Layer 1"><path class="cls-1" d="M336.3,86.8c1.59,3.64,96.32-24.66,99.25-63.86.31-4.13-.44-7.87,2.25-12,10.79-16.57,60.88-14.49,74.9,7.31C526,39,494.81,58.88,494.73,108c-.09,50.41,32.79,65.73,23.41,96.25-12.85,41.75-86.53,52.57-93.82,53.56-73.74,10-90.07-34.84-173.23-44.19-99.4-11.19-135.66,46.2-191.19,15.35-51.53-28.61-70.42-105.82-54.31-120,12.28-10.84,43.36,16.33,58.8,3.56C84.2,96.07,54.33,33.73,62.52,29.87c9.49-4.48,36.59,85.45,90.07,94.38C192.4,130.89,207.13,86,290.23,64.14c39-10.27,83.9-13.11,86.33-4.87C379.07,67.77,335.2,84.28,336.3,86.8Z"/></g></g></svg>